<?xml version="1.0" standalone="no"?>
<!DOCTYPE svg PUBLIC "-//W3C//DTD SVG 20010904//EN"
 "http://www.w3.org/TR/2001/REC-SVG-20010904/DTD/svg10.dtd">
<svg version="1.0" xmlns="http://www.w3.org/2000/svg"
 width="150.000000pt" height="76.000000pt" viewBox="0 0 150.000000 76.000000"
 preserveAspectRatio="xMidYMid meet">
<g transform="translate(0.000000,76.000000) scale(0.100000,-0.100000)"
fill="#ffffff" stroke="none">
<path d="M195 722 c-75 -37 -127 -90 -159 -165 -63 -141 0 -303 146 -376 82
-42 176 -43 258 -5 l54 25 95 -95 c96 -98 128 -115 159 -84 26 26 11 54 -85
150 l-97 97 25 52 c33 73 34 184 1 251 -52 105 -151 170 -267 176 -61 3 -78
-1 -130 -26z m215 -102 c22 -11 52 -39 67 -62 24 -36 28 -52 28 -113 0 -59 -4
-78 -24 -107 -50 -72 -133 -102 -219 -79 -166 45 -192 285 -39 360 55 28 135
28 187 1z"/>
<path d="M351 519 l-44 -50 -27 26 c-14 14 -29 25 -33 25 -14 0 -68 -54 -65
-66 2 -7 30 -40 62 -74 l59 -62 83 83 c46 46 84 88 84 94 0 11 -62 76 -70 74
-3 -1 -25 -23 -49 -50z"/>
<path d="M680 570 c-18 -18 -20 -33 -20 -135 0 -135 11 -169 66 -211 31 -24
47 -29 95 -29 65 0 98 18 137 75 20 30 22 45 22 160 0 110 -2 129 -18 143 -24
22 -45 21 -65 -1 -14 -15 -17 -40 -17 -120 0 -135 -17 -171 -76 -156 -30 8
-33 20 -36 157 -3 94 -6 111 -22 123 -27 19 -42 18 -66 -6z"/>
<path d="M1050 570 c-18 -18 -20 -33 -20 -178 0 -172 8 -202 55 -202 47 0 55
30 55 202 0 145 -2 160 -20 178 -11 11 -27 20 -35 20 -8 0 -24 -9 -35 -20z"/>
<path d="M1197 572 c-45 -50 0 -96 88 -90 30 1 55 2 55 1 0 -2 -36 -52 -80
-112 -84 -114 -97 -151 -61 -171 11 -5 76 -10 144 -10 107 0 126 2 140 18 23
25 21 59 -2 72 -11 5 -49 10 -85 10 l-66 0 85 115 c47 63 85 123 85 134 0 40
-36 51 -166 51 -104 0 -123 -2 -137 -18z"/>
</g>
</svg>
